# xmcd
#
# Track frame offsets: 
#        150
#        12863
#        26850
#        45533
#        60623
#        82913
#        98232
#        112290
#
# Disc length: 1707 seconds
#
# Revision: 0
# Processed by: cddbd v1.5.2PL0 Copyright (c) Steve Scherf et al.
# Submitted via: ExactAudioCopyFreeDBPlugin 1.0
#
DISCID=6106a908
DTITLE=Lund, Corb - Cover Your Tracks
DYEAR=2019
DGENRE=Country
TTITLE0=These Boots Are Made for Walkin'
TTITLE1=The Cover of the Rolling Stone (feat. Hayes Carll)
TTITLE2=They're Hanging Me Tonight
TTITLE3=Outlaw Man
TTITLE4=Ride On (feat. Ian Tyson)
TTITLE5=Seven Spanish Angels
TTITLE6=It's Still Rock and Roll to Me
TTITLE7=I Shall Be Released
EXTD=
EXTT0=
EXTT1=
EXTT2=
EXTT3=
EXTT4=
EXTT5=
EXTT6=
EXTT7=
PLAYORDER=
